<?xml version="1.0" encoding="utf-8"?>
<!-- Generator: Adobe Illustrator 19.0.1, SVG Export Plug-In . SVG Version: 6.00 Build 0)  -->
<svg version="1.1" id="Layer_1" xmlns="http://www.w3.org/2000/svg" xmlns:xlink="http://www.w3.org/1999/xlink" x="0px" y="0px"
	 width="125px" height="69.3px" viewBox="0 0 125 69.3" style="enable-background:new 0 0 125 69.3;" xml:space="preserve">
<style type="text/css">
	.st0{fill:#454545;}
</style>
<g>
	<g>
		<path class="st0" d="M8.2,69.1v-11h7.9v2h-5.8v3h5.5V65h-5.5v4.1H8.2z"/>
	</g>
</g>
<g>
	<g>
		<path class="st0" d="M32.9,67h-5.7l-0.9,2.1h-2.2l4.9-11h2.3l4.9,11h-2.3L32.9,67z M30,60.4l-2,4.7H32L30,60.4z"/>
	</g>
</g>
<g>
	<g>
		<path class="st0" d="M53.1,67.7c-1.1,1.1-2.6,1.6-4.2,1.6c-4.1,0-5.8-2.8-5.8-5.7c0-2.9,1.9-5.8,5.8-5.8c1.5,0,2.9,0.6,4,1.7
			l-1.4,1.3c-0.7-0.7-1.7-1-2.7-1c-2.7,0-3.8,2-3.8,3.8c0,1.8,1.1,3.7,3.8,3.7c1,0,2-0.4,2.8-1.1L53.1,67.7z"/>
	</g>
</g>
<g>
	<g>
		<path class="st0" d="M64.5,59.9H61v-1.9c3.2,0,5.9,0,9,0v1.9h-3.5v9.1h-2.1V59.9z"/>
	</g>
</g>
<g>
	<g>
		<path class="st0" d="M87.6,63.6c0,2.8-1.8,5.7-5.6,5.7c-3.9,0-5.7-2.8-5.7-5.7c0-3.5,2.5-5.8,5.7-5.8
			C85.8,57.9,87.7,60.8,87.6,63.6z M82,67.4c2.6,0,3.6-1.9,3.6-3.8c0-1.8-1-3.9-3.5-3.9c-2.3,0-3.7,1.8-3.7,3.9
			C78.4,65.5,79.4,67.4,82,67.4z"/>
	</g>
</g>
<g>
	<g>
		<path class="st0" d="M104.9,69.1h-2.4l-3.2-3.7h-2.1v3.7h-2.1v-11c1.7,0,3.5,0,5.2,0c2.6,0,4,1.7,4,3.6c0,1.5-0.7,3-2.8,3.5
			l3.3,3.8V69.1z M97.3,60v3.5h3.2c1.3,0,1.9-0.9,1.9-1.8s-0.6-1.8-1.9-1.8H97.3z"/>
	</g>
</g>
<g>
	<g>
		<path class="st0" d="M116.9,62.6l2.9-4.5h2.5v0.1l-4.4,6.4v4.5h-2.1v-4.5l-4.2-6.4v-0.1h2.5L116.9,62.6z"/>
	</g>
</g>
<g>
	<path class="st0" d="M123.9,16.5c-1,0.6-2.9,1.3-6.5,1.5c0.4-1,0.8-2.1,1.2-3.2c1.3-3.5-1.2-3.6-1.2-3.6c-1.3-0.1-3-0.2-4.6,0.2
		c-0.8,0.1-1.3,1.2-1.3,1.2c-0.5,1.1-1.2,2.9-2.1,5.2c-6.1,0.4-7.8,4.2-8.2,6.5c-0.1,0.6,0.5,1,1,0.7c1.5-1,3.5-1.3,5-1.3
		c-2.2,6.5-4.2,14.3-3.9,20c-1.3,1.5-2.7,2.6-3.9,2.6c-3.6,0-1.8-4.7-0.1-7.8c1.6-3.1,4.4-12.4-2.3-12.4c0,0-3.9-0.2-5.5,2.5
		c0,0-0.1-1.4-1-2.2c-0.3-0.3-0.9-0.2-0.9-0.2c-3.9,0.1-5.6,0.9-6.3,1.5C82.9,28,83,28.7,83,28.7c0.2,1.8,0.4,6.8-1.4,11.3
		c-2.5,2.5-10.2,9.7-11.9,4.8c2.7-0.9,10.1-4.1,10.1-12.3c0.1-7.2-6.4-6.2-6.4-6.2s-11.9,1.4-11.9,14.8c0,2,0.3,3.6,0.7,5
		c-4.1,2.6-9.7,3.7,2-23.8c1.2-3.1-0.6-3.7-1-3.8c-1.9-0.5-4.3-0.4-4.3-0.4c-1.2,0-1.8,1.2-1.8,1.2c-1.7,4-7.2,16.4-7.1,24.9
		c-0.5,1.1-1.4,2.2-2.7,2.2c-2.7,0,0.4-10.2,0.4-10.2s1.8-4.8-0.7-5c-2.5-0.3-4.6,0.9-5.4,1.5c-0.3,0.2-0.5,0.5-0.5,0.8
		c-0.1,2.5-0.9,11.8-4.4,11.8c-4,0,0.6-17.2,7.6-15.1c0.1,0,0.2,0,0.4,0c0.4-0.1,1.5-0.3,2.4-0.3c0.3,0,0.6-0.3,0.6-0.6
		c-0.1-1.2-1-3.8-6.7-3c-7.5,1-17.1,14.5-9.5,23.6c0,0,4.3,5.3,10.4-1.6c0,0,3.4,7.7,9,0.3c1.5,3.6,5.6,4.9,13.9,1.3
		c2.7,2.4,6.2,1.9,6.2,1.9s5-0.3,8.8-4.9c0.4,2.5,2.3,4.4,5.6,4.7c0,0,0,0,0,0c0.6,0.1,1.1-0.4,1.1-1c0,0,0-0.1,0-0.1
		c0.3-9.1,4.4-17.6,6.7-17.6c2,0,0.3,2.9,0.3,2.9s-8.3,16,3.2,16c0,0,4,0.5,7.3-4.5c1,3.1,3.4,4.9,7.8,4.3c0,0,0.1,0,0.1,0
		c0.7-0.2,10.4-2.7,6.8-12.8c-0.3-0.8-1.1-1.4-1.9-1.4c-0.5,0-0.8,0-1.1,0c-0.5,0.1-0.9,0.6-0.7,1.1c2.5,7-1.3,7.9-2.1,8
		c-0.1,0-0.1,0-0.2,0c-2.4-0.3-3.5-4.7,2.1-21.4c2.5,0.3,5.4,0.3,7.1-1c2.3-1.8,2.9-5,2.9-6.9C124.9,16.6,124.3,16.3,123.9,16.5z
		 M69.7,39.2c0,0,1-6.3,3.5-6.3c2.3,0,0.1,6.3-3.6,7.2C69.6,39.8,69.7,39.5,69.7,39.2z"/>
	<path class="st0" d="M30.6,15.1c0,0,0.5-0.9,0.1-2c10.6-0.4,21.4,1.2,21.8,1.3c0,0,0,0,0,0c0.9,0.2,59.6,11.6,58-9.5
		c0,0,0.1-5-5.6-4.9c0,0-0.1,0-0.1,0c-0.3,0-1.9,0.3-3.1,1.2c-0.2,0.2-0.3,0.5-0.1,0.7c1.1,1.4,3.6,6.4-8.7,9.9
		C80.2,15.3,41,5.1,41,5.1S1.6-5,0,16.9c0,0-0.8,6.3,6.2,7.9c0,0,0.1,0,0.1,0c0.4,0,3.5,0.3,4.7-1.1c0.2-0.2,0.1-0.5,0-0.7
		c-0.5-0.7-0.4-1.8-0.4-2.1c0,0,0-0.1,0-0.1c1.5-4.1,6.7-6.2,13-7.1c-14.2,28.9-9.2,38.1-2.6,38.1c7,0,6.3-6.7,6.3-6.7
		C18.2,47.5,26.3,25.7,30.6,15.1z"/>
</g>
</svg>
